<?xml version="1.0" encoding="utf-8"?>
<!-- Generator: Adobe Illustrator 26.4.1, SVG Export Plug-In . SVG Version: 6.00 Build 0)  -->
<svg version="1.1" id="Layer_1" xmlns="http://www.w3.org/2000/svg" xmlns:xlink="http://www.w3.org/1999/xlink" x="0px" y="0px"
	 viewBox="0 0 1999.44 1999.44" style="enable-background:new 0 0 1999.44 1999.44;" xml:space="preserve">
<style type="text/css">
	.st0{fill:#FFFFFF;}
</style>
<g>
	<path class="st0" d="M136.02,867.22c0,0,37.7,27.28,98.28,28.75c3.79,0.09,6.82,3.21,6.82,7v80.01
		c0,29.95-10.35,113.48-100.84,148.48c-2.72,1.05-5.77,1-8.46-0.13c-90.64-38.3-104.09-120.72-104.09-163.28v-62.91
		c0-3.75,2.95-6.86,6.7-7.01C49.39,897.53,88.06,893.27,136.02,867.22z"/>
	<path class="st0" d="M494.24,1119.93v2.88l-52.5-0.36c-4.32,0-8.03,0.32-11.15,0.96c-3.12,0.63-6.17,1.34-9.17,2.1
		c-3,0.76-6.11,1.46-9.35,2.1c-3.24,0.63-7.14,0.96-11.69,0.96c-13.91,0-26.85-3.12-38.84-9.35c-11.99-6.23-22.36-14.98-31.11-26.25
		c-8.75-11.27-15.59-24.81-20.5-40.64c-4.92-15.82-7.37-33.32-7.37-52.5c0-19.42,2.52-37.04,7.55-52.86
		c5.03-15.82,12.17-29.36,21.4-40.64c9.23-11.27,20.26-19.96,33.08-26.07c12.82-6.11,27.15-9.17,42.97-9.17
		c6.95,0,14.02,0.72,21.22,2.16c7.19,1.44,14.26,3.72,21.22,6.83c8.15,4.08,13.78,1.92,16.9-6.47l1.8-4.68h2.88l-0.72,61.13h-2.16
		c-5.75-15.82-13.79-28.64-24.09-38.48c-10.31-9.83-22.78-14.74-37.4-14.74c-13.66,0-24.99,3.84-33.98,11.51
		c-8.99,7.67-16.24,17.5-21.76,29.49c-5.52,11.99-9.41,25.23-11.69,39.74c-2.28,14.51-3.42,28.59-3.42,42.25
		c0,13.66,1.14,27.75,3.42,42.25c2.27,14.51,6.11,27.75,11.51,39.74c5.39,11.99,12.64,21.82,21.76,29.49
		c9.11,7.68,20.37,11.51,33.8,11.51c11.74,0,22.05-3.24,30.93-9.71v-89.18c0-4.31-1.26-8.09-3.78-11.33
		c-2.52-3.24-5.82-5.45-9.89-6.65l-6.11-1.8v-2.88h73.36v2.88l-6.11,1.8c-4.08,1.2-7.32,3.42-9.71,6.65
		c-2.4,3.24-3.6,7.01-3.6,11.33v76.24c0,4.08,1.2,7.73,3.6,10.97c2.39,3.24,5.63,5.46,9.71,6.65L494.24,1119.93z"/>
	<path d="M139.64,1028.2v0.93l-12.98-0.12c-1.07,0-1.99,0.1-2.76,0.31c-0.77,0.21-1.53,0.43-2.27,0.68
		c-0.74,0.25-1.51,0.47-2.31,0.68c-0.8,0.21-1.76,0.31-2.89,0.31c-3.44,0-6.64-1.01-9.6-3.03c-2.96-2.02-5.53-4.85-7.69-8.51
		c-2.16-3.65-3.85-8.04-5.07-13.17c-1.22-5.13-1.82-10.8-1.82-17.01c0-6.29,0.62-12,1.87-17.13c1.24-5.13,3.01-9.52,5.29-13.17
		c2.28-3.65,5.01-6.47,8.18-8.45c3.17-1.98,6.71-2.97,10.62-2.97c1.72,0,3.47,0.23,5.24,0.7c1.78,0.47,3.52,1.21,5.24,2.21
		c2.01,1.32,3.41,0.62,4.18-2.1l0.44-1.52h0.71l-0.18,19.81h-0.53c-1.42-5.13-3.41-9.28-5.96-12.47c-2.55-3.18-5.63-4.78-9.24-4.78
		c-3.38,0-6.18,1.24-8.4,3.73c-2.22,2.49-4.01,5.67-5.38,9.56c-1.36,3.89-2.33,8.18-2.89,12.88c-0.56,4.7-0.84,9.27-0.84,13.69
		s0.28,8.99,0.84,13.69c0.56,4.7,1.51,8.99,2.84,12.88c1.33,3.89,3.12,7.07,5.38,9.56c2.25,2.49,5.04,3.73,8.35,3.73
		c2.9,0,5.45-1.05,7.64-3.15v-28.9c0-1.4-0.31-2.62-0.93-3.67c-0.62-1.05-1.44-1.77-2.44-2.16l-1.51-0.58v-0.93h18.13v0.93
		l-1.51,0.58c-1.01,0.39-1.81,1.11-2.4,2.16c-0.59,1.05-0.89,2.27-0.89,3.67v24.71c0,1.32,0.3,2.51,0.89,3.55
		c0.59,1.05,1.39,1.77,2.4,2.16L139.64,1028.2z"/>
	<path class="st0" d="M665.93,1123.9h-54.24l-0.49-2.62l5.4-3.93c2.45-1.52,4.17-3.6,5.15-6.22c0.98-2.62,1.14-5.34,0.49-8.18
		l-5.65-23.56h-56.94l-5.4,22.58c-0.82,2.84-0.7,5.62,0.37,8.34c1.06,2.73,2.74,4.97,5.03,6.71l5.15,3.93l-0.49,2.95h-34.85
		l0.49-2.95l9.57-5.24c2.45-1.31,4.66-3.22,6.63-5.73c1.96-2.51,3.27-5.18,3.93-8.02l30.93-129.6c0.65-2.83,0.41-5.45-0.74-7.85
		c-1.15-2.4-3.03-4.36-5.65-5.89l-5.15-2.62l0.49-2.95h55.47l0.49,2.62l-5.15,2.62c-2.62,1.31-4.5,3.22-5.64,5.73
		c-1.15,2.51-1.39,5.19-0.74,8.02l30.93,130.91c0.82,2.84,2.17,5.46,4.05,7.85c1.88,2.4,4.13,4.37,6.75,5.89l9.08,4.58
		L665.93,1123.9z M615.37,1074.16l-27.49-114.87l-27,114.87H615.37z"/>
	<path class="st0" d="M746.68,958.31c-2.78,1.09-5.03,2.78-6.75,5.07c-1.72,2.29-2.58,4.75-2.58,7.36v135.81
		c0,2.84,0.86,5.4,2.58,7.69c1.72,2.29,3.97,3.98,6.75,5.07l6.14,1.96v2.62h-54v-2.62l6.38-1.96c2.78-1.09,4.99-2.78,6.63-5.07
		c1.63-2.29,2.45-4.85,2.45-7.69V970.74c0-2.62-0.82-5.07-2.45-7.36c-1.64-2.29-3.85-3.98-6.63-5.07l-6.38-2.29v-2.95h54v2.95
		L746.68,958.31z"/>
	<path class="st0" d="M919.57,959.62c-2.86,1.31-5.08,3.6-6.68,6.87c-1.6,3.27-2.39,6.77-2.39,10.47v123.71
		c0,3.71,0.84,7.15,2.52,10.31c1.68,3.17,3.95,5.4,6.8,6.71l6.55,3.27v2.95h-56.7l-1.51-2.95l3.53-1.96
		c2.68-1.74,4.41-4.09,5.17-7.04c0.76-2.95,0.29-6.16-1.39-9.65l-65.27-140.4v138.76c0,3.71,0.84,7.15,2.52,10.31
		c1.68,3.17,3.94,5.4,6.8,6.71l6.3,3.27v2.95h-35.53v-2.95l6.55-3.27c2.86-1.31,5.12-3.54,6.8-6.71c1.68-3.16,2.52-6.6,2.52-10.31
		V976.96c0-3.71-0.84-7.2-2.52-10.47c-1.68-3.27-3.87-5.56-6.55-6.87l-6.8-3.93v-2.62H848l1.01,2.62l-3.28,2.29
		c-5.38,4.15-6.47,9.93-3.28,17.34l64.01,137.12V976.96c0-3.71-0.8-7.2-2.39-10.47c-1.6-3.27-3.82-5.56-6.68-6.87l-6.8-3.93v-2.62
		h35.78v2.62L919.57,959.62z"/>
	<path class="st0" d="M1292.58,953.07v2.62l-6.3,1.96c-2.86,1.09-5.04,2.78-6.55,5.07c-1.51,2.29-2.27,4.86-2.27,7.69v110.62
		c0,8.07-1.26,14.84-3.78,20.29c-2.52,5.46-5.97,9.87-10.33,13.25c-4.37,3.39-9.62,5.78-15.75,7.2c-6.13,1.42-12.72,2.13-19.78,2.13
		c-7.9,0-15.21-0.87-21.92-2.62c-6.72-1.74-12.52-4.58-17.39-8.51c-4.87-3.93-8.69-9-11.47-15.22c-2.77-6.22-4.16-13.69-4.16-22.42
		V970.42c0-2.83-0.84-5.4-2.52-7.69c-1.68-2.29-3.78-3.98-6.3-5.07l-6.3-1.96v-2.62h54.43v2.62l-6.3,1.96
		c-2.86,1.09-5.08,2.78-6.68,5.07c-1.6,2.29-2.39,4.86-2.39,7.69v110.62c0,11.78,3.48,21.22,10.46,28.31
		c6.97,7.09,16.17,10.64,27.59,10.64c11.59,0,20.91-3.54,27.97-10.64c7.05-7.09,10.58-16.53,10.58-28.31V970.42
		c0-2.83-0.8-5.4-2.39-7.69c-1.6-2.29-3.82-3.98-6.68-5.07l-6.3-1.96v-2.62H1292.58z"/>
	<path class="st0" d="M1463.19,1123.9h-59.04l-0.8-2.29l2.95-2.62c2.86-1.96,4.65-4.52,5.37-7.69c0.71-3.16,0.27-6.38-1.34-9.65
		l-23.08-48.11l-28.45,48.44c-1.61,3.27-2.15,6.49-1.61,9.65c0.54,3.17,2.05,5.73,4.56,7.69l2.68,2.29l-1.34,2.29h-39.45l1.34-2.29
		l12.08-4.91c3.04-1.31,6.04-3.27,8.99-5.89c2.95-2.62,5.41-5.56,7.38-8.84l31.13-53.67l-35.69-74.94c-1.61-3.27-3.8-6.16-6.58-8.67
		c-2.78-2.51-5.68-4.2-8.72-5.07l-9.93-3.27l-1.61-3.27h59.31l1.61,3.27l-3.76,1.96c-3.05,1.31-5.01,3.33-5.9,6.05
		c-0.9,2.73-0.54,5.73,1.07,9l24.42,50.73l29.79-51.05c3.76-6.98,2.5-12-3.76-15.05l-3.22-1.64l1.88-3.27h39.45l-1.88,3.27
		l-10.2,3.27c-3.04,0.87-6.04,2.51-8.99,4.91c-2.95,2.4-5.41,5.24-7.38,8.51l-33.01,56.62l34.35,72c1.61,3.27,3.8,6.33,6.58,9.16
		c2.77,2.84,5.68,4.8,8.72,5.89l11,4.91L1463.19,1123.9z"/>
	<path class="st0" d="M1628.51,953.07v2.62l-6.3,1.96c-2.86,1.09-5.04,2.78-6.55,5.07c-1.51,2.29-2.27,4.86-2.27,7.69v110.62
		c0,8.07-1.26,14.84-3.78,20.29c-2.52,5.46-5.97,9.87-10.33,13.25c-4.37,3.39-9.62,5.78-15.75,7.2c-6.13,1.42-12.72,2.13-19.78,2.13
		c-7.9,0-15.21-0.87-21.92-2.62c-6.72-1.74-12.52-4.58-17.39-8.51c-4.87-3.93-8.69-9-11.47-15.22c-2.77-6.22-4.16-13.69-4.16-22.42
		V970.42c0-2.83-0.84-5.4-2.52-7.69c-1.68-2.29-3.78-3.98-6.3-5.07l-6.3-1.96v-2.62h54.43v2.62l-6.3,1.96
		c-2.86,1.09-5.08,2.78-6.68,5.07c-1.6,2.29-2.39,4.86-2.39,7.69v110.62c0,11.78,3.48,21.22,10.46,28.31
		c6.97,7.09,16.17,10.64,27.59,10.64c11.59,0,20.91-3.54,27.97-10.64c7.05-7.09,10.58-16.53,10.58-28.31V970.42
		c0-2.83-0.8-5.4-2.39-7.69c-1.6-2.29-3.82-3.98-6.68-5.07l-6.3-1.96v-2.62H1628.51z"/>
	<path class="st0" d="M1811.45,1123.9h-59.47l-1.76-2.62l1.51-1.96c2.35-2.62,3.57-5.56,3.65-8.84c0.08-3.27-0.8-6.43-2.65-9.49
		l-39.56-60.22h-8.07v59.23c0,3.93,0.84,7.48,2.52,10.64c1.68,3.17,3.94,5.51,6.8,7.04l6.55,3.6v2.62h-55.44v-2.62l6.8-3.6
		c2.69-1.52,4.87-3.87,6.55-7.04c1.68-3.16,2.52-6.71,2.52-10.64V975.32c0-3.93-0.84-7.41-2.52-10.47c-1.68-3.05-3.95-5.12-6.8-6.22
		l-6.55-2.94v-2.29h79.88c13.27,0,23.94,3.93,32,11.78c8.07,7.85,12.1,18.33,12.1,31.42c0,13.74-4.03,24.54-12.1,32.4
		c-8.06,7.85-18.73,11.78-32,11.78h-4.54l39.56,60.22c2.02,3.06,4.41,5.84,7.18,8.35c2.77,2.51,5.58,4.42,8.44,5.73l13.36,6.22
		L1811.45,1123.9z M1725.52,1035.54c12.1,0,21.84-3.49,29.23-10.47c7.39-6.98,11.09-16.25,11.09-27.82
		c0-11.78-3.7-21.22-11.09-28.31c-7.39-7.09-17.14-10.64-29.23-10.64h-20.41v77.23H1725.52z"/>
	<path class="st0" d="M1971.72,953.4l-1.01,2.29l-10.83,4.25c-2.35,1.1-4.62,2.73-6.81,4.91c-2.19,2.18-3.78,4.58-4.79,7.2
		l-32.76,82.8v51.71c0,2.84,0.79,5.4,2.39,7.69c1.6,2.29,3.82,3.88,6.68,4.75l7.31,2.29v2.62h-54.68v-2.62l7.31-2.29
		c2.86-0.87,5.04-2.45,6.55-4.75c1.51-2.29,2.27-4.85,2.27-7.69v-48.76l-32.76-85.74c-1.18-2.62-2.86-5.02-5.04-7.2
		c-2.19-2.18-4.54-3.81-7.05-4.91l-10.58-4.25l-0.76-2.29h56.44l0.76,2.29l-5.04,2.94c-2.52,1.53-4.24,3.49-5.17,5.89
		c-0.93,2.4-0.88,4.91,0.13,7.53l28.98,75.6l29.23-75.6c1.01-2.62,1.13-5.12,0.38-7.53c-0.75-2.4-2.39-4.36-4.91-5.89l-5.04-2.94
		l0.75-2.29H1971.72z"/>
	<path class="st0" d="M1123.93,1094.75l-2.88,28.05H975.41v-2.88l8.99-2.16c4.07-1.2,7.37-3.42,9.89-6.65
		c2.52-3.24,3.78-6.89,3.78-10.97V896.61c0-4.32-1.26-8.03-3.78-11.15c-2.52-3.11-5.82-5.27-9.89-6.47l-8.99-2.16v-2.88h79.11v2.88
		l-8.99,2.16c-4.08,1.2-7.37,3.36-9.89,6.47c-2.52,3.12-3.78,6.83-3.78,11.15v220.44h69.4c4.32,0,8.09-1.2,11.33-3.6
		c3.24-2.39,5.21-5.63,5.93-9.71l2.52-8.99H1123.93z"/>
	<path d="M180.03,1020.16l-0.71,9.09h-36v-0.93l2.22-0.7c1.01-0.39,1.82-1.11,2.44-2.16c0.62-1.05,0.93-2.23,0.93-3.55v-65.96
		c0-1.4-0.31-2.6-0.93-3.61c-0.62-1.01-1.44-1.71-2.44-2.1l-2.22-0.7v-0.93h19.55v0.93l-2.22,0.7c-1.01,0.39-1.82,1.09-2.44,2.1
		c-0.62,1.01-0.93,2.21-0.93,3.61v71.44h17.15c1.07,0,2-0.39,2.8-1.17c0.8-0.78,1.29-1.82,1.47-3.15l0.62-2.91H180.03z"/>
	<path d="M52.26,917.9h-4.81c0,0,0,14.94,0,52.81c0.01,19.38,2.7,46.66,14.78,72.97c6.04,13.15,14.45,26.04,26.05,37.45
		c11.59,11.41,26.35,21.31,44.94,28.51l1.77,0.69l1.76-0.71c19.09-7.69,34.32-17.95,46.34-29.59
		c18.04-17.47,28.82-37.98,35.08-57.47c6.26-19.51,8.02-38.02,8.02-51.84c0-13.07,0-26.27,0-36.21c0-4.97,0-9.12,0-12.03
		c0-2.91,0-4.57,0-4.58v-5.19l-5.17,0.39l0.13,1.67l-0.12-1.67l-0.01,0l0.13,1.67l-0.12-1.67c-0.03,0-1.07,0.08-2.98,0.08
		c-9.75,0-41.98-1.9-78.7-24.45l-2.35-1.45l-2.44,1.3c-44.28,23.71-77.4,24.51-81.68,24.51l-0.38,0l-0.08,0l0,0l-4.95-0.14v4.95
		H52.26l-0.14,4.81c0.05,0,0.29,0.01,0.74,0.01c5.46,0,40.24-1.03,86.23-25.65l-2.27-4.24l-2.52,4.1
		c38.7,23.76,72.78,25.87,83.74,25.87c2.3,0,3.59-0.09,3.7-0.1l-0.36-4.8h-4.81c0,0,0,1.67,0,4.58c0,8.73,0,28.63,0,48.24
		c0.01,17.33-3.01,42.81-14.92,67.32c-5.96,12.26-14.12,24.3-25.25,35.08c-11.14,10.78-25.25,20.33-43.24,27.58l1.8,4.46l1.74-4.49
		c-17.42-6.75-31-15.9-41.67-26.39c-15.99-15.74-25.47-34.6-30.97-53.1c-5.5-18.49-6.98-36.59-6.97-50.45c0-18.94,0-32.14,0-40.61
		s0-12.19,0-12.2H52.26l-0.14,4.81L52.26,917.9z"/>
</g>
</svg>
