<?xml version="1.0" encoding="utf-8"?>
<!-- Generator: Adobe Illustrator 27.1.1, SVG Export Plug-In . SVG Version: 6.00 Build 0)  -->
<svg version="1.1" id="Layer_1" xmlns="http://www.w3.org/2000/svg" xmlns:xlink="http://www.w3.org/1999/xlink" x="0px" y="0px"
	 viewBox="0 0 1999.4 295.5" style="enable-background:new 0 0 1999.4 295.5;" xml:space="preserve">
<style type="text/css">
	.st0{fill:#FFFFFF;}
</style>
<path class="st0" d="M144,5.2c0,0,40.5,29.3,105.5,30.9c4.1,0.1,7.3,3.4,7.3,7.5v85.9c0,32.1-11.1,121.8-108.2,159.4
	c-2.9,1.1-6.2,1.1-9.1-0.1C42.2,247.6,27.7,159.1,27.7,113.4V45.9c0-4,3.2-7.4,7.2-7.5C51,37.8,92.5,33.2,144,5.2z"/>
<path d="M494.2,274.6v2.9l-52.5-0.4c-4.3,0-8,0.3-11.1,1c-3.1,0.6-6.2,1.3-9.2,2.1s-6.1,1.5-9.4,2.1c-3.2,0.6-7.1,1-11.7,1
	c-13.9,0-26.9-3.1-38.8-9.3s-22.4-15-31.1-26.2s-15.6-24.8-20.5-40.6c-4.9-15.8-7.4-33.3-7.4-52.5c0-19.4,2.5-37,7.5-52.9
	s12.2-29.4,21.4-40.6c9.2-11.3,20.3-20,33.1-26.1c12.8-6.1,27.1-9.2,43-9.2c7,0,14,0.7,21.2,2.2c7.2,1.4,14.3,3.7,21.2,6.8
	c8.1,4.1,13.8,1.9,16.9-6.5l1.8-4.7h2.9l-0.7,61.1h-2.2c-5.8-15.8-13.8-28.6-24.1-38.5c-10.3-9.8-22.8-14.7-37.4-14.7
	c-13.7,0-25,3.8-34,11.5c-9,7.7-16.2,17.5-21.8,29.5c-5.5,12-9.4,25.2-11.7,39.7s-3.4,28.6-3.4,42.2s1.1,27.8,3.4,42.3
	c2.3,14.5,6.1,27.8,11.5,39.7c5.4,12,12.6,21.8,21.8,29.5c9.1,7.7,20.4,11.5,33.8,11.5c11.7,0,22-3.2,30.9-9.7v-89.2
	c0-4.3-1.3-8.1-3.8-11.3s-5.8-5.5-9.9-6.7l-6.1-1.8v-2.9h73.4v2.9l-6.1,1.8c-4.1,1.2-7.3,3.4-9.7,6.7c-2.4,3.2-3.6,7-3.6,11.3v76.2
	c0,4.1,1.2,7.7,3.6,11c2.4,3.2,5.6,5.5,9.7,6.7L494.2,274.6z"/>
<path d="M147.8,178v1l-13.9-0.1c-1.1,0-2.1,0.1-3,0.3c-0.8,0.2-1.6,0.5-2.4,0.7c-0.8,0.3-1.6,0.5-2.5,0.7c-0.9,0.2-1.9,0.3-3.1,0.3
	c-3.7,0-7.1-1.1-10.3-3.3c-3.2-2.2-5.9-5.2-8.3-9.1c-2.3-3.9-4.1-8.6-5.4-14.1c-1.3-5.5-2-11.6-2-18.3c0-6.8,0.7-12.9,2-18.4
	c1.3-5.5,3.2-10.2,5.7-14.1c2.4-3.9,5.4-6.9,8.8-9.1c3.4-2.1,7.2-3.2,11.4-3.2c1.8,0,3.7,0.2,5.6,0.8c1.9,0.5,3.8,1.3,5.6,2.4
	c2.2,1.4,3.7,0.7,4.5-2.3l0.5-1.6h0.8l-0.2,21.3h-0.6c-1.5-5.5-3.7-10-6.4-13.4c-2.7-3.4-6-5.1-9.9-5.1c-3.6,0-6.6,1.3-9,4
	c-2.4,2.7-4.3,6.1-5.8,10.3c-1.5,4.2-2.5,8.8-3.1,13.8c-0.6,5-0.9,10-0.9,14.7s0.3,9.6,0.9,14.7c0.6,5,1.6,9.6,3,13.8
	c1.4,4.2,3.3,7.6,5.8,10.3c2.4,2.7,5.4,4,9,4c3.1,0,5.8-1.1,8.2-3.4v-31c0-1.5-0.3-2.8-1-3.9c-0.7-1.1-1.5-1.9-2.6-2.3l-1.6-0.6v-1
	h19.5v1l-1.6,0.6c-1.1,0.4-1.9,1.2-2.6,2.3c-0.6,1.1-1,2.4-1,3.9v26.5c0,1.4,0.3,2.7,1,3.8c0.6,1.1,1.5,1.9,2.6,2.3L147.8,178z"/>
<path d="M665.9,278.6h-54.2l-0.5-2.6l5.4-3.9c2.5-1.5,4.2-3.6,5.2-6.2c1-2.6,1.1-5.3,0.5-8.2l-5.7-23.6h-56.9l-5.4,22.6
	c-0.8,2.8-0.7,5.6,0.4,8.3c1.1,2.7,2.7,5,5,6.7l5.2,3.9l-0.5,2.9h-34.8l0.5-2.9l9.6-5.2c2.5-1.3,4.7-3.2,6.6-5.7
	c2-2.5,3.3-5.2,3.9-8L581,127c0.7-2.8,0.4-5.5-0.7-7.8c-1.2-2.4-3-4.4-5.7-5.9l-5.2-2.6l0.5-3h55.5l0.5,2.6l-5.2,2.6
	c-2.6,1.3-4.5,3.2-5.6,5.7c-1.2,2.5-1.4,5.2-0.7,8l30.9,130.9c0.8,2.8,2.2,5.5,4,7.8c1.9,2.4,4.1,4.4,6.8,5.9l9.1,4.6L665.9,278.6z
	 M615.4,228.8L587.9,114l-27,114.9H615.4z"/>
<path d="M746.7,113c-2.8,1.1-5,2.8-6.8,5.1s-2.6,4.8-2.6,7.4v135.8c0,2.8,0.9,5.4,2.6,7.7c1.7,2.3,4,4,6.8,5.1l6.1,2v2.6h-54v-2.6
	l6.4-2c2.8-1.1,5-2.8,6.6-5.1c1.6-2.3,2.5-4.8,2.5-7.7V125.4c0-2.6-0.8-5.1-2.5-7.4c-1.6-2.3-3.8-4-6.6-5.1l-6.4-2.3v-3h54v3
	L746.7,113z"/>
<path d="M919.6,114.3c-2.9,1.3-5.1,3.6-6.7,6.9s-2.4,6.8-2.4,10.5v123.7c0,3.7,0.8,7.2,2.5,10.3c1.7,3.2,4,5.4,6.8,6.7l6.5,3.3v2.9
	h-56.7l-1.5-2.9l3.5-2c2.7-1.7,4.4-4.1,5.2-7c0.8-2.9,0.3-6.2-1.4-9.7l-65.3-140.4v138.8c0,3.7,0.8,7.2,2.5,10.3
	c1.7,3.2,3.9,5.4,6.8,6.7l6.3,3.3v2.9h-35.5v-2.9l6.5-3.3c2.9-1.3,5.1-3.5,6.8-6.7c1.7-3.2,2.5-6.6,2.5-10.3V131.6
	c0-3.7-0.8-7.2-2.5-10.5c-1.7-3.3-3.9-5.6-6.5-6.9l-6.8-3.9v-2.6H848l1,2.6l-3.3,2.3c-5.4,4.2-6.5,9.9-3.3,17.3l64,137.1V131.6
	c0-3.7-0.8-7.2-2.4-10.5c-1.6-3.3-3.8-5.6-6.7-6.9l-6.8-3.9v-2.6h35.8v2.6L919.6,114.3z"/>
<path d="M1292.6,107.7v2.6l-6.3,2c-2.9,1.1-5,2.8-6.6,5.1s-2.3,4.9-2.3,7.7v110.6c0,8.1-1.3,14.8-3.8,20.3c-2.5,5.5-6,9.9-10.3,13.2
	c-4.4,3.4-9.6,5.8-15.8,7.2c-6.1,1.4-12.7,2.1-19.8,2.1c-7.9,0-15.2-0.9-21.9-2.6c-6.7-1.7-12.5-4.6-17.4-8.5s-8.7-9-11.5-15.2
	c-2.8-6.2-4.2-13.7-4.2-22.4V125.1c0-2.8-0.8-5.4-2.5-7.7s-3.8-4-6.3-5.1l-6.3-2v-2.6h54.4v2.6l-6.3,2c-2.9,1.1-5.1,2.8-6.7,5.1
	c-1.6,2.3-2.4,4.9-2.4,7.7v110.6c0,11.8,3.5,21.2,10.5,28.3c7,7.1,16.2,10.6,27.6,10.6c11.6,0,20.9-3.5,28-10.6
	c7.1-7.1,10.6-16.5,10.6-28.3V125.1c0-2.8-0.8-5.4-2.4-7.7c-1.6-2.3-3.8-4-6.7-5.1l-6.3-2v-2.6L1292.6,107.7L1292.6,107.7z"/>
<path d="M1463.2,278.6h-59l-0.8-2.3l2.9-2.6c2.9-2,4.7-4.5,5.4-7.7c0.7-3.2,0.3-6.4-1.3-9.7l-23.1-48.1l-28.4,48.4
	c-1.6,3.3-2.2,6.5-1.6,9.7c0.5,3.2,2.1,5.7,4.6,7.7l2.7,2.3l-1.3,2.3h-39.4l1.3-2.3l12.1-4.9c3-1.3,6-3.3,9-5.9s5.4-5.6,7.4-8.8
	l31.1-53.7l-35.7-74.9c-1.6-3.3-3.8-6.2-6.6-8.7c-2.8-2.5-5.7-4.2-8.7-5.1l-9.9-3.3l-1.6-3.3h59.3l1.6,3.3l-3.8,2
	c-3.1,1.3-5,3.3-5.9,6c-0.9,2.7-0.5,5.7,1.1,9l24.4,50.7l29.8-51c3.8-7,2.5-12-3.8-15l-3.2-1.6l1.9-3.3h39.4l-1.9,3.3l-10.2,3.3
	c-3,0.9-6,2.5-9,4.9c-2.9,2.4-5.4,5.2-7.4,8.5l-33,56.6l34.3,72c1.6,3.3,3.8,6.3,6.6,9.2c2.8,2.8,5.7,4.8,8.7,5.9l11,4.9
	L1463.2,278.6z"/>
<path d="M1628.5,107.7v2.6l-6.3,2c-2.9,1.1-5,2.8-6.6,5.1s-2.3,4.9-2.3,7.7v110.6c0,8.1-1.3,14.8-3.8,20.3c-2.5,5.5-6,9.9-10.3,13.2
	c-4.4,3.4-9.6,5.8-15.8,7.2c-6.1,1.4-12.7,2.1-19.8,2.1c-7.9,0-15.2-0.9-21.9-2.6c-6.7-1.7-12.5-4.6-17.4-8.5s-8.7-9-11.5-15.2
	c-2.8-6.2-4.2-13.7-4.2-22.4V125.1c0-2.8-0.8-5.4-2.5-7.7s-3.8-4-6.3-5.1l-6.3-2v-2.6h54.4v2.6l-6.3,2c-2.9,1.1-5.1,2.8-6.7,5.1
	c-1.6,2.3-2.4,4.9-2.4,7.7v110.6c0,11.8,3.5,21.2,10.5,28.3c7,7.1,16.2,10.6,27.6,10.6c11.6,0,20.9-3.5,28-10.6
	c7.1-7.1,10.6-16.5,10.6-28.3V125.1c0-2.8-0.8-5.4-2.4-7.7c-1.6-2.3-3.8-4-6.7-5.1l-6.3-2v-2.6L1628.5,107.7L1628.5,107.7z"/>
<path d="M1811.4,278.6H1752l-1.8-2.6l1.5-2c2.3-2.6,3.6-5.6,3.7-8.8c0.1-3.3-0.8-6.4-2.7-9.5l-39.6-60.2h-8.1v59.2
	c0,3.9,0.8,7.5,2.5,10.6c1.7,3.2,3.9,5.5,6.8,7l6.6,3.6v2.6h-55.4V276l6.8-3.6c2.7-1.5,4.9-3.9,6.6-7c1.7-3.2,2.5-6.7,2.5-10.6V130
	c0-3.9-0.8-7.4-2.5-10.5c-1.7-3-3.9-5.1-6.8-6.2l-6.6-2.9v-2.3h79.9c13.3,0,23.9,3.9,32,11.8c8.1,7.8,12.1,18.3,12.1,31.4
	c0,13.7-4,24.5-12.1,32.4c-8.1,7.8-18.7,11.8-32,11.8h-4.5l39.6,60.2c2,3.1,4.4,5.8,7.2,8.3s5.6,4.4,8.4,5.7l13.4,6.2L1811.4,278.6z
	 M1725.5,190.2c12.1,0,21.8-3.5,29.2-10.5s11.1-16.2,11.1-27.8c0-11.8-3.7-21.2-11.1-28.3s-17.1-10.6-29.2-10.6h-20.4v77.2
	L1725.5,190.2L1725.5,190.2z"/>
<path d="M1971.7,108.1l-1,2.3l-10.8,4.2c-2.3,1.1-4.6,2.7-6.8,4.9c-2.2,2.2-3.8,4.6-4.8,7.2l-32.8,82.8v51.7c0,2.8,0.8,5.4,2.4,7.7
	c1.6,2.3,3.8,3.9,6.7,4.8l7.3,2.3v2.6h-54.7V276l7.3-2.3c2.9-0.9,5-2.4,6.6-4.8c1.5-2.3,2.3-4.8,2.3-7.7v-48.8l-32.8-85.7
	c-1.2-2.6-2.9-5-5-7.2c-2.2-2.2-4.5-3.8-7.1-4.9l-10.6-4.2l-0.8-2.3h56.4l0.8,2.3l-5,2.9c-2.5,1.5-4.2,3.5-5.2,5.9s-0.9,4.9,0.1,7.5
	l29,75.6l29.2-75.6c1-2.6,1.1-5.1,0.4-7.5c-0.8-2.4-2.4-4.4-4.9-5.9l-5-2.9l0.8-2.3L1971.7,108.1L1971.7,108.1z"/>
<path d="M1123.9,249.4l-2.9,28.1H975.4v-2.9l9-2.2c4.1-1.2,7.4-3.4,9.9-6.7c2.5-3.2,3.8-6.9,3.8-11V51.3c0-4.3-1.3-8-3.8-11.2
	c-2.5-3.1-5.8-5.3-9.9-6.5l-9-2.2v-2.9h79.1v2.9l-9,2.2c-4.1,1.2-7.4,3.4-9.9,6.5c-2.5,3.1-3.8,6.8-3.8,11.2v220.4h69.4
	c4.3,0,8.1-1.2,11.3-3.6c3.2-2.4,5.2-5.6,5.9-9.7l2.5-9L1123.9,249.4L1123.9,249.4z"/>
<path d="M191.2,169.4l-0.8,9.8h-38.6v-1l2.4-0.8c1.1-0.4,2-1.2,2.6-2.3c0.7-1.1,1-2.4,1-3.8v-70.8c0-1.5-0.3-2.8-1-3.9
	c-0.7-1.1-1.5-1.8-2.6-2.3l-2.4-0.8v-1h21v1l-2.4,0.8c-1.1,0.4-2,1.2-2.6,2.3c-0.7,1.1-1,2.4-1,3.9v76.7h18.4c1.1,0,2.1-0.4,3-1.3
	s1.4-2,1.6-3.4l0.7-3.1L191.2,169.4L191.2,169.4z"/>
<path d="M54.1,59.6h-5.2c0,0,0,16,0,56.7c0,20.8,2.9,50.1,15.9,78.3c6.5,14.1,15.5,28,28,40.2c12.4,12.2,28.3,22.9,48.2,30.6
	l1.9,0.7l1.9-0.8c20.5-8.3,36.8-19.3,49.7-31.8c19.4-18.8,30.9-40.8,37.7-61.7c6.7-20.9,8.6-40.8,8.6-55.6c0-14,0-28.2,0-38.9
	c0-5.3,0-9.8,0-12.9c0-3.1,0-4.9,0-4.9V54l-5.5,0.4l0.1,1.8l-0.1-1.8h0l0.1,1.8l-0.1-1.8c0,0-1.1,0.1-3.2,0.1
	c-10.5,0-45.1-2-84.5-26.2l-2.5-1.6l-2.6,1.4C94.9,53.6,59.3,54.5,54.7,54.5h-0.4h-0.1l0,0l-5.3-0.2v5.3L54.1,59.6l-0.2,5.2
	c0.1,0,0.3,0,0.8,0c5.9,0,43.2-1.1,92.6-27.5l-2.4-4.6l-2.7,4.4c41.5,25.5,78.1,27.8,89.9,27.8c2.5,0,3.9-0.1,4-0.1l-0.4-5.2h-5.2
	c0,0,0,1.8,0,4.9c0,9.4,0,30.7,0,51.8c0,18.6-3.2,46-16,72.3c-6.4,13.2-15.2,26.1-27.1,37.7c-12,11.6-27.1,21.8-46.4,29.6l1.9,4.8
	l1.9-4.8c-18.7-7.2-33.3-17.1-44.7-28.3c-17.2-16.9-27.3-37.1-33.2-57c-5.9-19.8-7.5-39.3-7.5-54.2c0-20.3,0-34.5,0-43.6
	s0-13.1,0-13.1L54.1,59.6l-0.2,5.2L54.1,59.6z"/>
</svg>
