<?xml version="1.0" encoding="utf-8"?>
<!-- Generator: Adobe Illustrator 27.1.1, SVG Export Plug-In . SVG Version: 6.00 Build 0)  -->
<svg version="1.1" id="Layer_1" xmlns="http://www.w3.org/2000/svg" xmlns:xlink="http://www.w3.org/1999/xlink" x="0px" y="0px"
	 viewBox="0 0 1999.4 295.5" style="enable-background:new 0 0 1999.4 295.5;" xml:space="preserve">
<style type="text/css">
	.st0{fill:#FFFFFF;}
</style>
<path class="st0" d="M494.2,274.6v2.9l-52.5-0.4c-4.3,0-8,0.3-11.1,1c-3.1,0.6-6.2,1.3-9.2,2.1s-6.1,1.5-9.4,2.1
	c-3.2,0.6-7.1,1-11.7,1c-13.9,0-26.9-3.1-38.8-9.3s-22.4-15-31.1-26.2s-15.6-24.8-20.5-40.6s-7.4-33.3-7.4-52.5
	c0-19.4,2.5-37,7.5-52.9s12.2-29.4,21.4-40.6c9.2-11.3,20.3-20,33.1-26.1c12.8-6.1,27.1-9.2,43-9.2c7,0,14,0.7,21.2,2.2
	c7.2,1.4,14.3,3.7,21.2,6.8c8.1,4.1,13.8,1.9,16.9-6.5l1.8-4.7h2.9l-0.7,61.1h-2.2c-5.8-15.8-13.8-28.6-24.1-38.5
	c-10.3-9.8-22.8-14.7-37.4-14.7c-13.7,0-25,3.8-34,11.5s-16.2,17.5-21.8,29.5c-5.5,12-9.4,25.2-11.7,39.7s-3.4,28.6-3.4,42.2
	s1.1,27.8,3.4,42.3s6.1,27.8,11.5,39.7c5.4,12,12.6,21.8,21.8,29.5c9.1,7.7,20.4,11.5,33.8,11.5c11.7,0,22-3.2,30.9-9.7v-89.2
	c0-4.3-1.3-8.1-3.8-11.3s-5.8-5.5-9.9-6.7l-6.1-1.8v-2.9h73.4v2.9l-6.1,1.8c-4.1,1.2-7.3,3.4-9.7,6.7c-2.4,3.2-3.6,7-3.6,11.3v76.2
	c0,4.1,1.2,7.7,3.6,11c2.4,3.2,5.6,5.5,9.7,6.7L494.2,274.6z"/>
<path class="st0" d="M665.9,278.6h-54.2l-0.5-2.6l5.4-3.9c2.5-1.5,4.2-3.6,5.2-6.2s1.1-5.3,0.5-8.2l-5.7-23.6h-56.9l-5.4,22.6
	c-0.8,2.8-0.7,5.6,0.4,8.3c1.1,2.7,2.7,5,5,6.7l5.2,3.9l-0.5,2.9h-34.8l0.5-2.9l9.6-5.2c2.5-1.3,4.7-3.2,6.6-5.7
	c2-2.5,3.3-5.2,3.9-8L581,127c0.7-2.8,0.4-5.5-0.7-7.8c-1.2-2.4-3-4.4-5.7-5.9l-5.2-2.6l0.5-3h55.5l0.5,2.6l-5.2,2.6
	c-2.6,1.3-4.5,3.2-5.6,5.7c-1.2,2.5-1.4,5.2-0.7,8l30.9,130.9c0.8,2.8,2.2,5.5,4,7.8c1.9,2.4,4.1,4.4,6.8,5.9l9.1,4.6L665.9,278.6z
	 M615.4,228.8L587.9,114l-27,114.9L615.4,228.8L615.4,228.8z"/>
<path class="st0" d="M746.7,113c-2.8,1.1-5,2.8-6.8,5.1s-2.6,4.8-2.6,7.4v135.8c0,2.8,0.9,5.4,2.6,7.7c1.7,2.3,4,4,6.8,5.1l6.1,2
	v2.6h-54v-2.6l6.4-2c2.8-1.1,5-2.8,6.6-5.1c1.6-2.3,2.5-4.8,2.5-7.7V125.4c0-2.6-0.8-5.1-2.5-7.4c-1.6-2.3-3.8-4-6.6-5.1l-6.4-2.3
	v-3h54v3L746.7,113z"/>
<path class="st0" d="M919.6,114.3c-2.9,1.3-5.1,3.6-6.7,6.9s-2.4,6.8-2.4,10.5v123.7c0,3.7,0.8,7.2,2.5,10.3c1.7,3.2,4,5.4,6.8,6.7
	l6.5,3.3v2.9h-56.7l-1.5-2.9l3.5-2c2.7-1.7,4.4-4.1,5.2-7s0.3-6.2-1.4-9.7l-65.3-140.4v138.8c0,3.7,0.8,7.2,2.5,10.3
	c1.7,3.2,3.9,5.4,6.8,6.7l6.3,3.3v2.9h-35.5v-2.9l6.5-3.3c2.9-1.3,5.1-3.5,6.8-6.7s2.5-6.6,2.5-10.3V131.6c0-3.7-0.8-7.2-2.5-10.5
	s-3.9-5.6-6.5-6.9l-6.8-3.9v-2.6H848l1,2.6l-3.3,2.3c-5.4,4.2-6.5,9.9-3.3,17.3l64,137.1V131.6c0-3.7-0.8-7.2-2.4-10.5
	c-1.6-3.3-3.8-5.6-6.7-6.9l-6.8-3.9v-2.6h35.8v2.6L919.6,114.3z"/>
<path class="st0" d="M1292.6,107.7v2.6l-6.3,2c-2.9,1.1-5,2.8-6.6,5.1s-2.3,4.9-2.3,7.7v110.6c0,8.1-1.3,14.8-3.8,20.3
	c-2.5,5.5-6,9.9-10.3,13.2c-4.4,3.4-9.6,5.8-15.8,7.2c-6.1,1.4-12.7,2.1-19.8,2.1c-7.9,0-15.2-0.9-21.9-2.6
	c-6.7-1.7-12.5-4.6-17.4-8.5s-8.7-9-11.5-15.2s-4.2-13.7-4.2-22.4V125.1c0-2.8-0.8-5.4-2.5-7.7s-3.8-4-6.3-5.1l-6.3-2v-2.6h54.4v2.6
	l-6.3,2c-2.9,1.1-5.1,2.8-6.7,5.1c-1.6,2.3-2.4,4.9-2.4,7.7v110.6c0,11.8,3.5,21.2,10.5,28.3s16.2,10.6,27.6,10.6
	c11.6,0,20.9-3.5,28-10.6s10.6-16.5,10.6-28.3V125.1c0-2.8-0.8-5.4-2.4-7.7c-1.6-2.3-3.8-4-6.7-5.1l-6.3-2v-2.6L1292.6,107.7
	L1292.6,107.7z"/>
<path class="st0" d="M1463.2,278.6h-59l-0.8-2.3l2.9-2.6c2.9-2,4.7-4.5,5.4-7.7c0.7-3.2,0.3-6.4-1.3-9.7l-23.1-48.1l-28.4,48.4
	c-1.6,3.3-2.2,6.5-1.6,9.7c0.5,3.2,2.1,5.7,4.6,7.7l2.7,2.3l-1.3,2.3h-39.4l1.3-2.3l12.1-4.9c3-1.3,6-3.3,9-5.9s5.4-5.6,7.4-8.8
	l31.1-53.7l-35.7-74.9c-1.6-3.3-3.8-6.2-6.6-8.7c-2.8-2.5-5.7-4.2-8.7-5.1l-9.9-3.3l-1.6-3.3h59.3l1.6,3.3l-3.8,2
	c-3.1,1.3-5,3.3-5.9,6s-0.5,5.7,1.1,9l24.4,50.7l29.8-51c3.8-7,2.5-12-3.8-15l-3.2-1.6l1.9-3.3h39.4l-1.9,3.3l-10.2,3.3
	c-3,0.9-6,2.5-9,4.9c-2.9,2.4-5.4,5.2-7.4,8.5l-33,56.6l34.3,72c1.6,3.3,3.8,6.3,6.6,9.2c2.8,2.8,5.7,4.8,8.7,5.9l11,4.9
	L1463.2,278.6z"/>
<path class="st0" d="M1628.5,107.7v2.6l-6.3,2c-2.9,1.1-5,2.8-6.6,5.1s-2.3,4.9-2.3,7.7v110.6c0,8.1-1.3,14.8-3.8,20.3
	c-2.5,5.5-6,9.9-10.3,13.2c-4.4,3.4-9.6,5.8-15.8,7.2c-6.1,1.4-12.7,2.1-19.8,2.1c-7.9,0-15.2-0.9-21.9-2.6
	c-6.7-1.7-12.5-4.6-17.4-8.5s-8.7-9-11.5-15.2s-4.2-13.7-4.2-22.4V125.1c0-2.8-0.8-5.4-2.5-7.7s-3.8-4-6.3-5.1l-6.3-2v-2.6h54.4v2.6
	l-6.3,2c-2.9,1.1-5.1,2.8-6.7,5.1c-1.6,2.3-2.4,4.9-2.4,7.7v110.6c0,11.8,3.5,21.2,10.5,28.3s16.2,10.6,27.6,10.6
	c11.6,0,20.9-3.5,28-10.6s10.6-16.5,10.6-28.3V125.1c0-2.8-0.8-5.4-2.4-7.7c-1.6-2.3-3.8-4-6.7-5.1l-6.3-2v-2.6L1628.5,107.7
	L1628.5,107.7z"/>
<path class="st0" d="M1811.4,278.6H1752l-1.8-2.6l1.5-2c2.3-2.6,3.6-5.6,3.7-8.8c0.1-3.3-0.8-6.4-2.7-9.5l-39.6-60.2h-8.1v59.2
	c0,3.9,0.8,7.5,2.5,10.6c1.7,3.2,3.9,5.5,6.8,7l6.6,3.6v2.6h-55.4V276l6.8-3.6c2.7-1.5,4.9-3.9,6.6-7c1.7-3.2,2.5-6.7,2.5-10.6V130
	c0-3.9-0.8-7.4-2.5-10.5c-1.7-3-3.9-5.1-6.8-6.2l-6.6-2.9v-2.3h79.9c13.3,0,23.9,3.9,32,11.8c8.1,7.8,12.1,18.3,12.1,31.4
	c0,13.7-4,24.5-12.1,32.4c-8.1,7.8-18.7,11.8-32,11.8h-4.5l39.6,60.2c2,3.1,4.4,5.8,7.2,8.3s5.6,4.4,8.4,5.7l13.4,6.2L1811.4,278.6z
	 M1725.5,190.2c12.1,0,21.8-3.5,29.2-10.5s11.1-16.2,11.1-27.8c0-11.8-3.7-21.2-11.1-28.3s-17.1-10.6-29.2-10.6h-20.4v77.2
	L1725.5,190.2L1725.5,190.2z"/>
<path class="st0" d="M1971.7,108.1l-1,2.3l-10.8,4.2c-2.3,1.1-4.6,2.7-6.8,4.9c-2.2,2.2-3.8,4.6-4.8,7.2l-32.8,82.8v51.7
	c0,2.8,0.8,5.4,2.4,7.7c1.6,2.3,3.8,3.9,6.7,4.8l7.3,2.3v2.6h-54.7V276l7.3-2.3c2.9-0.9,5-2.4,6.6-4.8c1.5-2.3,2.3-4.8,2.3-7.7
	v-48.8l-32.8-85.7c-1.2-2.6-2.9-5-5-7.2c-2.2-2.2-4.5-3.8-7.1-4.9l-10.6-4.2l-0.8-2.3h56.4l0.8,2.3l-5,2.9c-2.5,1.5-4.2,3.5-5.2,5.9
	s-0.9,4.9,0.1,7.5l29,75.6l29.2-75.6c1-2.6,1.1-5.1,0.4-7.5c-0.8-2.4-2.4-4.4-4.9-5.9l-5-2.9l0.8-2.3L1971.7,108.1L1971.7,108.1z"/>
<path class="st0" d="M1123.9,249.4l-2.9,28.1H975.4v-2.9l9-2.2c4.1-1.2,7.4-3.4,9.9-6.7c2.5-3.2,3.8-6.9,3.8-11V51.3
	c0-4.3-1.3-8-3.8-11.2c-2.5-3.1-5.8-5.3-9.9-6.5l-9-2.2v-2.9h79.1v2.9l-9,2.2c-4.1,1.2-7.4,3.4-9.9,6.5s-3.8,6.8-3.8,11.2v220.4
	h69.4c4.3,0,8.1-1.2,11.3-3.6c3.2-2.4,5.2-5.6,5.9-9.7l2.5-9L1123.9,249.4L1123.9,249.4z"/>
<path class="st0" d="M129.2,1c0,0,41.7,30.2,108.7,31.8c4.2,0.1,7.5,3.5,7.5,7.7V129c0,33.1-11.4,125.5-111.5,164.2
	c-3,1.2-6.4,1.1-9.4-0.1C24.3,250.7,9.4,159.6,9.4,112.5V43c0-4.1,3.3-7.6,7.4-7.8C33.4,34.5,76.2,29.8,129.2,1z"/>
<path d="M133.2,179v1l-14.4-0.1c-1.2,0-2.2,0.1-3.1,0.3s-1.7,0.5-2.5,0.8s-1.7,0.5-2.6,0.8c-0.9,0.2-1.9,0.3-3.2,0.3
	c-3.8,0-7.3-1.1-10.6-3.4s-6.1-5.4-8.5-9.4s-4.3-8.9-5.6-14.6s-2-11.9-2-18.8c0-7,0.7-13.3,2.1-18.9c1.4-5.7,3.3-10.5,5.8-14.6
	c2.5-4,5.5-7.2,9-9.3c3.5-2.2,7.4-3.3,11.7-3.3c1.9,0,3.8,0.3,5.8,0.8s3.9,1.3,5.8,2.4c2.2,1.5,3.8,0.7,4.6-2.3L126,89h0.8
	l-0.2,21.9H126c-1.6-5.7-3.8-10.3-6.6-13.8c-2.8-3.5-6.2-5.3-10.2-5.3c-3.7,0-6.8,1.4-9.3,4.1s-4.4,6.3-5.9,10.6
	c-1.5,4.3-2.6,9-3.2,14.2S90,131.1,90,136s0.3,9.9,0.9,15.1c0.6,5.2,1.7,9.9,3.1,14.2c1.5,4.3,3.5,7.8,5.9,10.6
	c2.5,2.8,5.6,4.1,9.2,4.1c3.2,0,6-1.2,8.4-3.5v-32c0-1.5-0.3-2.9-1-4.1c-0.7-1.2-1.6-2-2.7-2.4l-1.7-0.6v-1h20v1l-1.7,0.6
	c-1.1,0.4-2,1.2-2.7,2.4s-1,2.5-1,4.1v27.3c0,1.5,0.3,2.8,1,3.9c0.7,1.2,1.5,2,2.7,2.4L133.2,179z"/>
<path d="M177.9,170.2l-0.8,10.1h-39.8v-1l2.5-0.8c1.1-0.4,2-1.2,2.7-2.4s1-2.5,1-3.9V99.1c0-1.5-0.3-2.9-1-4s-1.6-1.9-2.7-2.3
	l-2.5-0.8v-1h21.6v1l-2.5,0.8c-1.1,0.4-2,1.2-2.7,2.3c-0.7,1.1-1,2.4-1,4v79h19c1.2,0,2.2-0.4,3.1-1.3s1.4-2,1.6-3.5l0.7-3.2
	L177.9,170.2L177.9,170.2z"/>
<path d="M36.6,57.1h-5.3c0,0,0,16.5,0,58.4c0,21.4,3,51.6,16.3,80.7c6.7,14.5,16,28.8,28.8,41.4s29.1,23.6,49.7,31.5l2,0.8l1.9-0.8
	c21.1-8.5,38-19.8,51.2-32.7c19.9-19.3,31.9-42,38.8-63.5c6.9-21.6,8.9-42,8.9-57.3c0-14.5,0-29,0-40c0-5.5,0-10.1,0-13.3
	s0-5.1,0-5.1v-5.7l-5.7,0.4l0.1,1.8l-0.1-1.8l0,0l0.1,1.8l-0.1-1.8c0,0-1.2,0.1-3.3,0.1c-10.8,0-46.4-2.1-87-27l-2.6-1.6l-2.7,1.4
	c-49,26.1-85.6,27-90.3,27h-0.4h-0.1l0,0l-5.5-0.2v5.5H36.6l-0.2,5.3c0.1,0,0.3,0,0.8,0c6,0,44.5-1.1,95.4-28.4l-2.5-4.7l-2.8,4.5
	c42.8,26.3,80.5,28.6,92.6,28.6c2.5,0,4-0.1,4.1-0.1l-0.4-5.3h-5.3c0,0,0,1.8,0,5.1c0,9.7,0,31.7,0,53.3c0,19.2-3.3,47.3-16.5,74.4
	c-6.6,13.6-15.6,26.9-27.9,38.8c-12.3,11.9-27.9,22.5-47.8,30.5l2,4.9l1.9-5c-19.3-7.5-34.3-17.6-46.1-29.2
	c-17.7-17.4-28.2-38.3-34.2-58.7c-6.1-20.4-7.7-40.5-7.7-55.8c0-20.9,0-35.5,0-44.9s0-13.5,0-13.5L36.6,57.1l-0.2,5.3L36.6,57.1z"/>
</svg>
