<?xml version="1.0" encoding="utf-8"?>
<!-- Generator: Adobe Illustrator 27.1.1, SVG Export Plug-In . SVG Version: 6.00 Build 0)  -->
<svg version="1.1" id="Layer_1" xmlns="http://www.w3.org/2000/svg" xmlns:xlink="http://www.w3.org/1999/xlink" x="0px" y="0px"
	 viewBox="0 0 31.3 38.8" style="enable-background:new 0 0 31.3 38.8;" xml:space="preserve">
<style type="text/css">
	.st0{fill:#FFFFFF;}
</style>
<path d="M15.9,0c0,0,5.5,4,14.4,4.2c0.6,0,1,0.5,1,1v11.7c0,4.4-1.5,16.6-14.7,21.7c-0.4,0.1-0.8,0.1-1.2,0C2,33,0.1,21,0.1,14.8
	V5.6c0-0.5,0.4-1,1-1C3.2,4.4,8.9,3.8,15.9,0z"/>
<path class="st0" d="M16.4,23.6v0.1l-1.9,0c-0.1,0-0.3,0-0.4,0c-0.1,0-0.2,0.1-0.3,0.1c-0.1,0-0.2,0.1-0.3,0.1c-0.1,0-0.3,0-0.4,0
	c-0.5,0-1-0.1-1.4-0.4c-0.4-0.3-0.8-0.7-1.1-1.2c-0.3-0.5-0.6-1.2-0.7-1.9c-0.2-0.7-0.3-1.6-0.3-2.5c0-0.9,0.1-1.8,0.3-2.5
	c0.2-0.7,0.4-1.4,0.8-1.9c0.3-0.5,0.7-0.9,1.2-1.2c0.5-0.3,1-0.4,1.6-0.4c0.2,0,0.5,0,0.8,0.1c0.3,0.1,0.5,0.2,0.8,0.3
	c0.3,0.2,0.5,0.1,0.6-0.3l0.1-0.2h0.1l0,2.9h-0.1c-0.2-0.7-0.5-1.4-0.9-1.8c-0.4-0.5-0.8-0.7-1.3-0.7c-0.5,0-0.9,0.2-1.2,0.5
	s-0.6,0.8-0.8,1.4c-0.2,0.6-0.3,1.2-0.4,1.9c-0.1,0.7-0.1,1.4-0.1,2s0,1.3,0.1,2c0.1,0.7,0.2,1.3,0.4,1.9c0.2,0.6,0.4,1,0.8,1.4
	c0.3,0.4,0.7,0.5,1.2,0.5c0.4,0,0.8-0.1,1.1-0.5V19c0-0.2,0-0.4-0.1-0.5c-0.1-0.1-0.2-0.3-0.4-0.3l-0.2-0.1v-0.1h2.7v0.1l-0.2,0.1
	c-0.1,0.1-0.3,0.2-0.4,0.3c-0.1,0.1-0.1,0.3-0.1,0.5v3.6c0,0.2,0,0.4,0.1,0.5c0.1,0.1,0.2,0.3,0.4,0.3L16.4,23.6z"/>
<path class="st0" d="M22.4,22.4l-0.1,1.3H17v-0.1l0.3-0.1c0.1-0.1,0.3-0.2,0.4-0.3c0.1-0.1,0.1-0.3,0.1-0.5V13c0-0.2,0-0.4-0.1-0.5
	c-0.1-0.1-0.2-0.2-0.4-0.3L17,12v-0.1h2.9V12l-0.3,0.1c-0.1,0.1-0.3,0.2-0.4,0.3C19.1,12.6,19,12.8,19,13v10.4h2.5
	c0.1,0,0.3-0.1,0.4-0.2s0.2-0.3,0.2-0.5L22.4,22.4L22.4,22.4L22.4,22.4z"/>
<path class="st0" d="M3.7,7.4H3c0,0,0,2.2,0,7.7C3,18,3.4,22,5.1,25.8c0.9,1.9,2.1,3.8,3.8,5.5c1.7,1.7,3.9,3.1,6.6,4.2l0.3,0.1
	l0.3-0.1c2.8-1.1,5-2.6,6.8-4.3c2.6-2.6,4.2-5.6,5.1-8.4c0.9-2.8,1.2-5.6,1.2-7.6c0-1.9,0-3.8,0-5.3c0-0.7,0-1.3,0-1.8
	c0-0.4,0-0.7,0-0.7V6.7l-0.7,0.1l0,0.2l0-0.2l0,0l0,0.2l0-0.2c0,0-0.1,0-0.4,0c-1.4,0-6.1-0.3-11.5-3.6l-0.3-0.2l-0.4,0.2
	C9.2,6.6,4.4,6.7,3.8,6.7H3.7h0l0,0L3,6.7v0.7H3.7l0,0.7c0,0,0,0,0.1,0c0.8,0,5.9-0.1,12.6-3.7L16,3.7l-0.4,0.6
	c5.7,3.5,10.6,3.8,12.2,3.8c0.3,0,0.5,0,0.5,0l-0.1-0.7h-0.7c0,0,0,0.2,0,0.7c0,1.3,0,4.2,0,7.1c0,2.5-0.4,6.3-2.2,9.9
	c-0.9,1.8-2.1,3.6-3.7,5.1c-1.6,1.6-3.7,3-6.3,4l0.3,0.7l0.3-0.7c-2.5-1-4.5-2.3-6.1-3.9c-2.3-2.3-3.7-5.1-4.5-7.8
	c-0.8-2.7-1-5.4-1-7.4c0-2.8,0-4.7,0-5.9s0-1.8,0-1.8L3.7,7.4l0,0.7L3.7,7.4z"/>
</svg>
