<?xml version="1.0" encoding="utf-8"?>
<!-- Generator: Adobe Illustrator 27.1.1, SVG Export Plug-In . SVG Version: 6.00 Build 0)  -->
<svg version="1.1" id="Layer_1" xmlns="http://www.w3.org/2000/svg" xmlns:xlink="http://www.w3.org/1999/xlink" x="0px" y="0px"
	 viewBox="0 0 238.7 294.6" style="enable-background:new 0 0 238.7 294.6;" xml:space="preserve">
<style type="text/css">
	.st0{fill:#FFFFFF;}
</style>
<path d="M121,5.2c0,0,40.5,29.3,105.5,30.9c4.1,0.1,7.3,3.4,7.3,7.5v85.9c0,32.1-11.1,121.8-108.2,159.4c-2.9,1.1-6.2,1.1-9.1-0.1
	C19.2,247.6,4.8,159.1,4.8,113.4V45.9c0-4,3.2-7.4,7.2-7.5C28.1,37.7,69.6,33.1,121,5.2z"/>
<path class="st0" d="M124.9,178v1l-13.9-0.1c-1.1,0-2.1,0.1-3,0.3c-0.8,0.2-1.6,0.5-2.4,0.7c-0.8,0.3-1.6,0.5-2.5,0.7
	c-0.9,0.2-1.9,0.3-3.1,0.3c-3.7,0-7.1-1.1-10.3-3.3c-3.2-2.2-5.9-5.2-8.3-9.1c-2.3-3.9-4.1-8.6-5.4-14.1c-1.3-5.5-2-11.6-2-18.3
	c0-6.8,0.7-12.9,2-18.4c1.3-5.5,3.2-10.2,5.7-14.1c2.4-3.9,5.4-6.9,8.8-9.1c3.4-2.1,7.2-3.2,11.4-3.2c1.8,0,3.7,0.2,5.6,0.8
	c1.9,0.5,3.8,1.3,5.6,2.4c2.2,1.4,3.7,0.7,4.5-2.3l0.5-1.6h0.8l-0.2,21.3h-0.6c-1.5-5.5-3.7-10-6.4-13.4c-2.7-3.4-6-5.1-9.9-5.1
	c-3.6,0-6.6,1.3-9,4c-2.4,2.7-4.3,6.1-5.8,10.3c-1.5,4.2-2.5,8.8-3.1,13.8c-0.6,5-0.9,10-0.9,14.7c0,4.7,0.3,9.6,0.9,14.7
	s1.6,9.6,3,13.8s3.3,7.6,5.8,10.3c2.4,2.7,5.4,4,9,4c3.1,0,5.8-1.1,8.2-3.4v-31c0-1.5-0.3-2.8-1-3.9c-0.7-1.1-1.5-1.9-2.6-2.3
	l-1.6-0.6v-1h19.5v1l-1.6,0.6c-1.1,0.4-1.9,1.2-2.6,2.3c-0.6,1.1-1,2.4-1,3.9v26.5c0,1.4,0.3,2.7,1,3.8c0.6,1.1,1.5,1.9,2.6,2.3
	L124.9,178z"/>
<path class="st0" d="M168.3,169.3l-0.8,9.8h-38.6v-1l2.4-0.8c1.1-0.4,2-1.2,2.6-2.3c0.7-1.1,1-2.4,1-3.8v-70.8c0-1.5-0.3-2.8-1-3.9
	c-0.7-1.1-1.5-1.8-2.6-2.3l-2.4-0.8v-1h21v1l-2.4,0.8c-1.1,0.4-2,1.2-2.6,2.3c-0.7,1.1-1,2.4-1,3.9v76.7h18.4c1.1,0,2.1-0.4,3-1.3
	s1.4-2,1.6-3.4l0.7-3.1L168.3,169.3L168.3,169.3z"/>
<path class="st0" d="M31.1,59.6H26c0,0,0,16,0,56.7c0,20.8,2.9,50.1,15.9,78.3c6.5,14.1,15.5,28,28,40.2
	c12.4,12.2,28.3,22.9,48.2,30.6l1.9,0.7l1.9-0.8c20.5-8.3,36.8-19.3,49.7-31.8c19.4-18.8,30.9-40.8,37.7-61.7
	c6.7-20.9,8.6-40.8,8.6-55.6c0-14,0-28.2,0-38.9c0-5.3,0-9.8,0-12.9c0-3.1,0-4.9,0-4.9V54l-5.5,0.4l0.1,1.8l-0.1-1.8h0l0.1,1.8
	l-0.1-1.8c0,0-1.1,0.1-3.2,0.1c-10.5,0-45.1-2-84.5-26.2l-2.5-1.6l-2.6,1.4C71.9,53.6,36.4,54.4,31.8,54.4h-0.4h-0.1l0,0L26,54.3
	v5.3L31.1,59.6L31,64.7c0.1,0,0.3,0,0.8,0c5.9,0,43.2-1.1,92.6-27.5l-2.4-4.6l-2.7,4.4c41.5,25.5,78.1,27.8,89.9,27.8
	c2.5,0,3.9-0.1,4-0.1l-0.4-5.2h-5.2c0,0,0,1.8,0,4.9c0,9.4,0,30.7,0,51.8c0,18.6-3.2,46-16,72.3c-6.4,13.2-15.2,26.1-27.1,37.7
	c-12,11.6-27.1,21.8-46.4,29.6l1.9,4.8l1.9-4.8c-18.7-7.2-33.3-17.1-44.7-28.3c-17.2-16.9-27.3-37.1-33.2-57
	c-5.9-19.8-7.5-39.3-7.5-54.2c0-20.3,0-34.5,0-43.6s0-13.1,0-13.1L31.1,59.6L31,64.8L31.1,59.6z"/>
</svg>
